<svg xmlns="http://www.w3.org/2000/svg" viewBox="0 0 900 470" width="900" height="470" role="img" aria-label="Architecture InsaCloud">
<defs><marker id="arrow" viewBox="0 0 10 10" refX="9" refY="5" markerWidth="6" markerHeight="6" orient="auto-start-reverse"><path d="M 0 0 L 10 5 L 0 10 z" fill="#8b9098"/></marker><marker id="arrowD" viewBox="0 0 10 10" refX="9" refY="5" markerWidth="6" markerHeight="6" orient="auto-start-reverse"><path d="M 0 0 L 10 5 L 0 10 z" fill="#8b9098"/></marker></defs>
<rect width="900" height="470" rx="12" fill="#ffffff"/>
<rect x="18" y="186" width="126" height="76" rx="10" fill="#f7f8fa" stroke="#d8dce2" stroke-width="1.5"/>
<text x="81" y="218" font-family="-apple-system, BlinkMacSystemFont, 'Segoe UI', Inter, Roboto, sans-serif" font-size="13" font-weight="600" fill="#15171c" text-anchor="middle">Navigateur</text>
<text x="81" y="236" font-family="-apple-system, BlinkMacSystemFont, 'Segoe UI', Inter, Roboto, sans-serif" font-size="11" fill="#8b9098" text-anchor="middle">utilisateur</text>
<path d="M 148 224 L 196 224" fill="none" stroke="#8b9098" stroke-width="1.6" marker-end="url(#arrow)"/><text x="172" y="214" font-family="-apple-system, BlinkMacSystemFont, 'Segoe UI', Inter, Roboto, sans-serif" font-size="11" font-weight="500" fill="#8b9098" text-anchor="middle">HTTPS</text>
<rect x="200" y="34" width="252" height="300" rx="10" fill="#f7f8fa" stroke="#d8dce2" stroke-width="1.5"/><text x="216" y="60" font-family="-apple-system, BlinkMacSystemFont, 'Segoe UI', Inter, Roboto, sans-serif" font-size="14" font-weight="600" fill="#c8102e">controller — 192.168.56.10</text><rect x="214" y="74" width="224" height="24" rx="6" fill="#ffffff" stroke="#d8dce2" stroke-width="1"/><text x="224" y="90" font-family="-apple-system, BlinkMacSystemFont, 'Segoe UI', Inter, Roboto, sans-serif" font-size="11.5" fill="#5b616b">nginx · TLS 1.3, HSTS</text><rect x="214" y="104" width="224" height="24" rx="6" fill="#ffffff" stroke="#d8dce2" stroke-width="1"/><text x="224" y="120" font-family="-apple-system, BlinkMacSystemFont, 'Segoe UI', Inter, Roboto, sans-serif" font-size="11.5" fill="#5b616b">Gunicorn · 4 workers</text><rect x="214" y="134" width="224" height="24" rx="6" fill="#ffffff" stroke="#d8dce2" stroke-width="1"/><text x="224" y="150" font-family="-apple-system, BlinkMacSystemFont, 'Segoe UI', Inter, Roboto, sans-serif" font-size="11.5" fill="#5b616b">Flask — location, coffre</text><rect x="214" y="164" width="224" height="24" rx="6" fill="#ffffff" stroke="#d8dce2" stroke-width="1"/><text x="224" y="180" font-family="-apple-system, BlinkMacSystemFont, 'Segoe UI', Inter, Roboto, sans-serif" font-size="11.5" fill="#5b616b">Faucheur — expirations</text><rect x="214" y="194" width="224" height="24" rx="6" fill="#ffffff" stroke="#d8dce2" stroke-width="1"/><text x="224" y="210" font-family="-apple-system, BlinkMacSystemFont, 'Segoe UI', Inter, Roboto, sans-serif" font-size="11.5" fill="#5b616b">Watchdog — timer 1 min</text><rect x="214" y="224" width="224" height="24" rx="6" fill="#ffffff" stroke="#d8dce2" stroke-width="1"/><text x="224" y="240" font-family="-apple-system, BlinkMacSystemFont, 'Segoe UI', Inter, Roboto, sans-serif" font-size="11.5" fill="#5b616b">SQLite (WAL) · Vault</text>
<rect x="576" y="34" width="306" height="132" rx="10" fill="#f7f8fa" stroke="#d8dce2" stroke-width="1.5"/><text x="592" y="60" font-family="-apple-system, BlinkMacSystemFont, 'Segoe UI', Inter, Roboto, sans-serif" font-size="14" font-weight="600" fill="#15171c">worker1 — 192.168.56.11</text><rect x="590" y="74" width="278" height="24" rx="6" fill="#ffffff" stroke="#d8dce2" stroke-width="1"/><text x="600" y="90" font-family="-apple-system, BlinkMacSystemFont, 'Segoe UI', Inter, Roboto, sans-serif" font-size="11.5" fill="#5b616b">dockerd · live-restore</text><rect x="590" y="104" width="278" height="24" rx="6" fill="#ffffff" stroke="#d8dce2" stroke-width="1"/><text x="600" y="120" font-family="-apple-system, BlinkMacSystemFont, 'Segoe UI', Inter, Roboto, sans-serif" font-size="11.5" fill="#5b616b">conteneurs insacloud_*</text><rect x="590" y="134" width="278" height="24" rx="6" fill="#ffffff" stroke="#d8dce2" stroke-width="1"/><text x="600" y="150" font-family="-apple-system, BlinkMacSystemFont, 'Segoe UI', Inter, Roboto, sans-serif" font-size="11.5" fill="#5b616b">ports 8000-9000</text>
<rect x="576" y="202" width="306" height="132" rx="10" fill="#f7f8fa" stroke="#d8dce2" stroke-width="1.5"/><text x="592" y="228" font-family="-apple-system, BlinkMacSystemFont, 'Segoe UI', Inter, Roboto, sans-serif" font-size="14" font-weight="600" fill="#15171c">worker2 — 192.168.56.12</text><rect x="590" y="242" width="278" height="24" rx="6" fill="#ffffff" stroke="#d8dce2" stroke-width="1"/><text x="600" y="258" font-family="-apple-system, BlinkMacSystemFont, 'Segoe UI', Inter, Roboto, sans-serif" font-size="11.5" fill="#5b616b">dockerd · live-restore</text><rect x="590" y="272" width="278" height="24" rx="6" fill="#ffffff" stroke="#d8dce2" stroke-width="1"/><text x="600" y="288" font-family="-apple-system, BlinkMacSystemFont, 'Segoe UI', Inter, Roboto, sans-serif" font-size="11.5" fill="#5b616b">conteneurs insacloud_*</text><rect x="590" y="302" width="278" height="24" rx="6" fill="#ffffff" stroke="#d8dce2" stroke-width="1"/><text x="600" y="318" font-family="-apple-system, BlinkMacSystemFont, 'Segoe UI', Inter, Roboto, sans-serif" font-size="11.5" fill="#5b616b">ports 8000-9000</text>
<path d="M 456 120 C 510 120, 520 96, 572 96" fill="none" stroke="#8b9098" stroke-width="1.6" marker-end="url(#arrow)"/><text x="514" y="88" font-family="-apple-system, BlinkMacSystemFont, 'Segoe UI', Inter, Roboto, sans-serif" font-size="11" font-weight="500" fill="#8b9098" text-anchor="middle">docker -H ssh://</text>
<path d="M 456 250 C 510 250, 520 268, 572 268" fill="none" stroke="#8b9098" stroke-width="1.6" marker-end="url(#arrow)"/>
<path d="M 81 266 L 81 420 L 700 420 L 700 342" fill="none" stroke="#8b9098" stroke-width="1.6" stroke-dasharray="5 4" marker-end="url(#arrowD)"/><text x="420" y="444" font-family="-apple-system, BlinkMacSystemFont, 'Segoe UI', Inter, Roboto, sans-serif" font-size="11" font-weight="500" fill="#8b9098" text-anchor="middle">SSH · terminal web · bureau (ports 8000-9000)</text>
</svg>